# xmcd
# 
# Track frame offsets:
#     187
#     18137
#     41912
#     63487
#     77245
#     96745
#     112325
#     126930
#     147887
#     163712
#     195257
#     211512
# 
# Disc length: 3052
# 
# Revision: 1
# Processed by: cddbd v1.5.2PL0 Copyright (c) Steve Scherf et al.
# Submitted via: BonkEnc v1.0.5
# 
DISCID=aa0bea0c
DTITLE=遠藤賢司 - シルヴァー・スター
DYEAR=1995
DGENRE=JPop
TTITLE0=ほんとだよ
TTITLE1=夜汽車のブルース
TTITLE2=雨あがりのビル街
TTITLE3=カレーライス
TTITLE4=待ちすぎた僕はとても疲れてしまった
TTITLE5=満足できるかな
TTITLE6=猫と僕と君
TTITLE7=Hello Goodby
TTITLE8=歓喜の歌
TTITLE9=気をつけろよベイビー
TTITLE10=星空のワルツ
TTITLE11=踊ろよベイビー
EXTD=YEAR: 1995
EXTT0=
EXTT1=
EXTT2=
EXTT3=
EXTT4=
EXTT5=
EXTT6=
EXTT7=
EXTT8=
EXTT9=
EXTT10=
EXTT11=
PLAYORDER=
